<?xml version="1.0" encoding="utf-8"?>
<!-- Generator: Adobe Illustrator 23.0.2, SVG Export Plug-In . SVG Version: 6.00 Build 0)  -->
<svg version="1.1" id="Layer_3" xmlns="http://www.w3.org/2000/svg" xmlns:xlink="http://www.w3.org/1999/xlink" x="0px" y="0px"
	 viewBox="0 0 560 165" style="enable-background:new 0 0 560 165;" xml:space="preserve">
<style type="text/css">
	.st0{fill:#F4F7F7;}
</style>
<g>
	<path class="st0" d="M105.8,30c0,5.7-2,10.5-6,14.5c-4,4-8.8,6-14.5,6H23.9v82.1c-5.7,0-10.5-2-14.5-6c-4-4-6-8.8-6-14.5V50.5
		c0-5.7,2-10.6,6-14.5c4-4,8.8-6,14.5-6H105.8z M105.8,132.6H44.4c-5.7,0-10.5-2-14.5-6c-4-4-6-8.9-6-14.6h61.5c5.7,0,10.5,2,14.5,6
		C103.8,122,105.8,126.9,105.8,132.6z"/>
	<path class="st0" d="M228.8,112.1c0,5.7-2,10.5-6,14.5c-4,4-8.8,6-14.5,6V81.4c0-5.7,2-10.5,6-14.5c4-4,8.8-6,14.5-6V112.1z
		 M290.2,132.6c-5.7,0-10.5-2-14.5-6c-4-4-6-8.8-6-14.5V81.4h-20.5c-5.7,0-10.5-2-14.5-6c-4-4-6-8.8-6-14.5h41c5.7,0,10.5,2,14.5,6
		c4,4,6,8.8,6,14.5V132.6z"/>
	<path class="st0" d="M362,112c0,5.7-2,10.6-6,14.6c-4,4-8.8,6-14.5,6H321c-5.7,0-10.5-2-14.5-6c-4-4-6-8.8-6-14.5V81.4
		c0-5.7,2-10.5,6-14.5c4-4,8.8-6,14.5-6h41c0,5.6-2,10.4-6,14.4c-4,4-8.8,5.9-14.5,5.9L321,81.4v30.7L362,112z M382.5,132.6
		c-5.7,0-10.5-2-14.5-6c-4-4-6-8.8-6-14.5V50.5c0-5.7,2-10.6,6-14.5c4-4,8.8-6,14.5-6V132.6z"/>
	<path class="st0" d="M476,81.4c0,5.7-2,10.5-6,14.5c-4,4-8.8,6-14.5,6H435c0-5.7,2-10.5,6-14.5c4-4,8.8-6,14.5-6h-41v51.2
		c-5.7,0-10.5-2-14.5-6c-4-4-6-8.8-6-14.5V81.4c0-5.7,2-10.5,6-14.5c4-4,8.8-6,14.5-6h41c5.7,0,10.5,2,14.5,6
		C474,70.9,476,75.7,476,81.4z M476,112c0,5.7-2,10.6-6,14.6c-4,4-8.8,6-14.5,6h-41c0-5.7,2-10.6,6-14.6c4-4,8.8-6,14.5-6H476z"/>
	<path class="st0" d="M556.6,60.9c0,5.7-2,10.5-6,14.5c-4,4-8.8,6-14.5,6h-30.7v30.7c0,5.7-2,10.5-6,14.5c-4,4-8.8,6-14.5,6V81.4
		c0-5.7,2-10.5,6-14.5c4-4,8.8-6,14.5-6H556.6z"/>
	<path class="st0" d="M198.1,163c-5.7,0-10.5-2-14.5-5.9c-4-4-6-8.8-6-14.5l0-10l-41.1,0c-5.7,0-10.5-2-14.5-6c-4-4-6-8.8-6-14.5
		l0-51.2c5.7,0,10.5,2,14.5,6c4,4,6,8.8,6,14.5l0,51.2c0-5.7,2-10.6,6-14.6c4-4,8.8-6,14.5-6l20.5,0.2l0-30.7c0-5.7,2-10.5,6-14.5
		c4-4,8.8-6,14.5-6l0,39c0.1,0.6,0.1,1.3,0.1,1.9L198.1,163z"/>
</g>
</svg>
